#N canvas 1403 1265 1048 782 10;
#X obj 855 33 Gem;
#X obj 25 155 gemwin;
#X obj 248 395 separator;
#X obj 871 233 separator;
#X obj 251 44 gemhead;
#X obj 871 315 rotateXYZ 0 0 0;
#X floatatom 894 269 5 0 0 0 - - -, f 5;
#X floatatom 934 269 5 0 0 0 - - -, f 5;
#X floatatom 974 269 5 0 0 0 - - -, f 5;
#X msg 38 312 color \$1 \$2 \$3;
#X floatatom 37 199 5 0 0 0 - - -, f 5;
#X obj 37 279 pack f f f;
#X floatatom 77 199 5 0 0 0 - - -, f 5;
#X floatatom 117 199 5 0 0 0 - - -, f 5;
#X obj 77 219 t b f;
#X obj 117 219 t b f;
#X obj 396 445 translateXYZ 0 0 0;
#X obj 396 384 separator;
#X floatatom 419 420 5 0 0 0 - - -, f 5;
#X floatatom 459 420 5 0 0 0 - - -, f 5;
#X floatatom 530 396 12 0 0 0 - - -, f 12;
#X obj 251 185 t a a a;
#X obj 248 456 translateXYZ 0 0 0;
#X obj 367 145 gemhead;
#X obj 367 166 world_light;
#X obj 48 356 tgl 15 0 empty empty empty 17 7 0 10 -262144 -1 -1 0
1;
#X msg 48 376 lighting \$1;
#X floatatom 262 427 5 0 0 0 - - -, f 5;
#X floatatom 302 427 5 0 0 0 - - -, f 5;
#X floatatom 342 426 5 0 0 0 - - -, f 5;
#X floatatom 262 487 5 0 0 0 - - -, f 5;
#X floatatom 302 487 5 0 0 0 - - -, f 5;
#X floatatom 342 486 5 0 0 0 - - -, f 5;
#X obj 248 516 rotateXYZ 0 0 0;
#X floatatom 419 470 5 0 0 0 - - -, f 5;
#X floatatom 459 470 5 0 0 0 - - -, f 5;
#X floatatom 499 470 5 0 0 0 - - -, f 5;
#X obj 396 495 rotateXYZ 0 0 0;
#X obj 252 354 t a a;
#X obj 254 252 translateXYZ 0 0 0;
#X floatatom 268 223 5 0 0 0 - - -, f 5;
#X floatatom 308 223 5 0 0 0 - - -, f 5;
#X floatatom 348 222 5 0 0 0 - - -, f 5;
#X floatatom 268 283 5 0 0 0 - - -, f 5;
#X floatatom 308 283 5 0 0 0 - - -, f 5;
#X floatatom 348 282 5 0 0 0 - - -, f 5;
#X obj 254 312 rotateXYZ 0 0 0;
#X msg 393 219 -45 0 45;
#X msg 453 218 0 45 45;
#X obj 384 262 unpack f f f;
#X obj 396 559 color 0 1 1;
#X msg 467 532 1 1 1;
#X msg 511 532 0 1 1;
#X msg 505 220 -60 -30 45;
#X msg 98 167 color 1 1 1;
#X msg 15 130 0 \, destroy;
#X obj 248 588 cube 2;
#X obj 396 589 square 2;
#X floatatom 518 349 5 0 0 0 - - -, f 5;
#X obj 530 416 + 0.0001;
#X obj 516 197 loadbang;
#X obj 520 304 loadbang;
#N canvas 847 1382 423 352 save 0;
#X obj 190 219 gemhead 99;
#X obj 156 73 savepanel;
#X msg 211 261 file \$1;
#X obj 28 101 symbol /tmp/gemshot;
#X obj 28 29 bng 30 250 50 0 empty empty empty 0 -6 0 8 -262144 -1
-1;
#X obj 28 199 makefilename %s00000.tif;
#X msg 28 227 open \$1;
#X obj 28 129 t b s b s;
#X obj 28 177 symbol;
#X obj 28 153 del 500;
#X obj 156 53 bng 15 250 50 0 empty empty empty 0 -6 0 8 -262144 -1
-1;
#X msg 327 253 auto \$1;
#X obj 331 231 tgl 15 0 empty empty empty 17 7 0 10 -262144 -1 -1 0
1;
#X obj 190 294 pix_write;
#X msg 260 126 file test.tif TIFF;
#X obj 260 147 t b a;
#X connect 0 0 13 0;
#X connect 1 0 3 1;
#X connect 2 0 13 0;
#X connect 3 0 7 0;
#X connect 4 0 3 0;
#X connect 7 0 9 0;
#X connect 7 1 8 1;
#X connect 7 2 13 0;
#X connect 7 3 2 0;
#X connect 8 0 5 0;
#X connect 9 0 8 0;
#X connect 10 0 1 0;
#X connect 11 0 13 0;
#X connect 12 0 11 0;
#X connect 14 0 15 0;
#X restore 665 104 pd save;
#X msg 161 280 reset;
#X msg 39 21 reset \, view 0 0 20 \, perspec -1 1 -1 1 4 50;
#X floatatom 938 375 5 0 0 0 - - -, f 5;
#X obj 871 294 translateXYZ 0 0 -4;
#X obj 721 233 separator;
#X obj 721 315 rotateXYZ 0 0 0;
#X floatatom 744 269 5 0 0 0 - - -, f 5;
#X floatatom 784 269 5 0 0 0 - - -, f 5;
#X floatatom 824 269 5 0 0 0 - - -, f 5;
#X floatatom 788 375 5 0 0 0 - - -, f 5;
#X obj 721 294 translateXYZ 0 0 -4;
#X obj 872 399 circle 6;
#X obj 722 399 circle 5.375;
#X text 816 507 114 \, 137 \, 218;
#X msg 810 546 114 137 218;
#X obj 810 567 unpack f f f;
#X obj 810 649 pack f f f;
#X msg 810 691 0.424706 0.510392 0.812157;
#X msg 810 670 set \$1 \$2 \$3 \, bang;
#X obj 721 338 color 0 0 0;
#X obj 871 338 color;
#X obj 248 548 color;
#X msg 790 526 114 137 218;
#X text 616 527 114 \, 137 \, 218;
#X msg 610 566 114 137 218;
#X obj 610 587 unpack f f f;
#X obj 610 669 pack f f f;
#X msg 610 711 0.223529 0.268627 0.427451;
#X msg 610 690 set \$1 \$2 \$3 \, bang;
#X msg 590 546 114 137 218;
#X obj 610 607 expr $f1/255*.5;
#X obj 630 628 expr $f1/255*.5;
#X obj 650 648 expr $f1/255*.5;
#X obj 810 588 expr $f1/255*.95;
#X obj 830 608 expr $f1/255*.95;
#X obj 850 628 expr $f1/255*.95;
#X obj 264 92 translateXYZ 0 0 0;
#X floatatom 278 63 5 0 0 0 - - -, f 5;
#X floatatom 318 63 5 0 0 0 - - -, f 5;
#X floatatom 358 62 5 0 0 0 - - -, f 5;
#X floatatom 278 123 5 0 0 0 - - -, f 5;
#X floatatom 318 123 5 0 0 0 - - -, f 5;
#X floatatom 358 122 5 0 0 0 - - -, f 5;
#X obj 264 152 rotateXYZ 0 0 0;
#X msg 20 649 0 \, destroy \, reset \, dimen 1024 1024 \, color 1 1
1 \, view 0 0 20 \, perspec -1 1 -1 1 4 50 \, create \, 1;
#X obj 361 23 loadbang;
#X msg 361 44 -0.1;
#X msg 520 325 2;
#X obj 688 465 loadbang;
#X text 65 622 START;
#X connect 2 0 22 0;
#X connect 3 0 66 0;
#X connect 4 0 99 0;
#X connect 5 0 83 0;
#X connect 6 0 66 1;
#X connect 7 0 66 2;
#X connect 8 0 66 3;
#X connect 9 0 1 0;
#X connect 10 0 11 0;
#X connect 11 0 9 0;
#X connect 12 0 14 0;
#X connect 13 0 15 0;
#X connect 14 0 11 0;
#X connect 14 1 11 1;
#X connect 15 0 11 0;
#X connect 15 1 11 2;
#X connect 16 0 37 0;
#X connect 17 0 16 0;
#X connect 18 0 16 1;
#X connect 19 0 16 2;
#X connect 20 0 59 0;
#X connect 21 0 39 0;
#X connect 21 1 67 0;
#X connect 21 2 3 0;
#X connect 22 0 33 0;
#X connect 23 0 24 0;
#X connect 25 0 26 0;
#X connect 26 0 1 0;
#X connect 27 0 22 1;
#X connect 28 0 22 2;
#X connect 29 0 22 3;
#X connect 30 0 33 1;
#X connect 31 0 33 2;
#X connect 32 0 33 3;
#X connect 33 0 84 0;
#X connect 34 0 37 1;
#X connect 35 0 37 2;
#X connect 36 0 37 3;
#X connect 37 0 50 0;
#X connect 38 0 17 0;
#X connect 38 1 2 0;
#X connect 39 0 46 0;
#X connect 40 0 39 1;
#X connect 41 0 39 2;
#X connect 42 0 39 3;
#X connect 43 0 46 1;
#X connect 44 0 46 2;
#X connect 45 0 46 3;
#X connect 46 0 38 0;
#X connect 47 0 49 0;
#X connect 48 0 49 0;
#X connect 49 0 43 0;
#X connect 49 1 44 0;
#X connect 49 2 45 0;
#X connect 50 0 57 0;
#X connect 51 0 50 1;
#X connect 52 0 50 1;
#X connect 53 0 49 0;
#X connect 54 0 1 0;
#X connect 55 0 1 0;
#X connect 58 0 20 0;
#X connect 58 0 57 1;
#X connect 58 0 56 1;
#X connect 59 0 16 3;
#X connect 60 0 53 0;
#X connect 61 0 110 0;
#X connect 63 0 1 0;
#X connect 64 0 1 0;
#X connect 65 0 74 1;
#X connect 66 0 5 0;
#X connect 67 0 73 0;
#X connect 68 0 82 0;
#X connect 69 0 73 1;
#X connect 70 0 73 2;
#X connect 71 0 73 3;
#X connect 72 0 75 1;
#X connect 73 0 68 0;
#X connect 77 0 78 0;
#X connect 78 0 96 0;
#X connect 78 1 97 0;
#X connect 78 2 98 0;
#X connect 79 0 81 0;
#X connect 80 0 83 1;
#X connect 81 0 80 0;
#X connect 82 0 75 0;
#X connect 83 0 74 0;
#X connect 84 0 56 0;
#X connect 85 0 78 0;
#X connect 87 0 88 0;
#X connect 88 0 93 0;
#X connect 88 1 94 0;
#X connect 88 2 95 0;
#X connect 89 0 91 0;
#X connect 90 0 84 1;
#X connect 91 0 90 0;
#X connect 92 0 88 0;
#X connect 93 0 89 0;
#X connect 94 0 89 1;
#X connect 95 0 89 2;
#X connect 96 0 79 0;
#X connect 97 0 79 1;
#X connect 98 0 79 2;
#X connect 99 0 106 0;
#X connect 100 0 99 1;
#X connect 101 0 99 2;
#X connect 102 0 99 3;
#X connect 103 0 106 1;
#X connect 104 0 106 2;
#X connect 105 0 106 3;
#X connect 106 0 21 0;
#X connect 107 0 1 0;
#X connect 108 0 109 0;
#X connect 109 0 102 0;
#X connect 110 0 58 0;
#X connect 111 0 92 0;
#X connect 111 0 85 0;
